<?xml version="1.0" encoding="UTF-8" standalone="no"?>
<!DOCTYPE svg PUBLIC "-//W3C//DTD SVG 1.1//EN" "http://www.w3.org/Graphics/SVG/1.1/DTD/svg11.dtd">
<svg width="100%" height="100%" viewBox="0 0 1932 971" version="1.1" xmlns="http://www.w3.org/2000/svg" xmlns:xlink="http://www.w3.org/1999/xlink" xml:space="preserve" xmlns:serif="http://www.serif.com/" style="fill-rule:evenodd;clip-rule:evenodd;stroke-linejoin:round;stroke-miterlimit:2;">
    <g transform="matrix(1,0,0,1,-4414.34,-709.806)">
        <g transform="matrix(1,0,0,1,-0.207349,0)">
            <g id="Logo">
                <g transform="matrix(1,0,0,1,0.207349,0)">
                    <path d="M4414.34,1128.12C4414.34,1128.12 4660.63,1122.49 4801.05,1082.14C4982.91,1029.88 5168.95,939.993 5315.27,860.56C5461.6,781.127 5593.79,705.792 5836.27,709.972C6028.56,713.288 6110.08,782.636 6149.32,822.934C6381.35,1061.23 6343.72,1335.07 6343.72,1335.07C6343.72,1335.07 6145.41,989.853 5834.18,993.506C5656.32,995.594 5492.95,1092.59 5357.08,1134.39C5198,1183.34 4997.54,1218.78 4899.29,1218.01C4633.81,1215.92 4414.34,1128.12 4414.34,1128.12Z" style="fill:rgb(99,102,241);"/>
                </g>
                <g transform="matrix(1,0,0,1,0.207349,0)">
                    <path d="M4905.57,1349.7C4905.57,1349.7 5071.4,1447.25 5194.03,1481.39C5282.5,1506.02 5373.83,1538.63 5515.94,1542.01C5624.69,1544.6 5662.27,1456.31 5745.88,1456.31C5808.59,1456.31 5871.72,1491.83 5873.39,1560.83C5875.17,1634 5762.61,1682.06 5566.11,1679.97C5377.99,1677.97 5248.49,1619.16 5160.59,1571.28C4903.48,1431.22 4905.57,1349.7 4905.57,1349.7Z" style="fill:rgb(99,102,241);"/>
                </g>
                <g transform="matrix(1,0,0,1,0.207349,0)">
                    <path d="M5275.56,1286.99C5275.56,1286.99 5486.68,1282.81 5593.29,1249.36C5699.9,1215.92 5762.59,1189.54 5850.4,1190.83C5992.54,1192.92 6118.29,1312.1 6120.05,1378.96C6122.14,1458.4 5989.33,1439.1 5942.37,1422.86C5895.31,1406.59 5829.5,1339.25 5768.88,1339.25C5676.9,1339.25 5635.09,1381.06 5549.39,1381.06C5463.69,1381.06 5275.56,1286.99 5275.56,1286.99Z" style="fill:rgb(99,102,241);"/>
                </g>
            </g>
        </g>
    </g>
</svg>
